<svg width="31.073" xmlns="http://www.w3.org/2000/svg" height="31.083" fill="none"><g data-testid="partly-cloudy" style="fill: rgb(0, 0, 0);"><path d="M17.236 7.431a.643.643 0 0 1-.631-.632V4.371c0-.34.291-.631.631-.631s.631.291.631.631v2.428c0 .34-.291.632-.631.632Zm-7.914 7.916H6.894a.642.642 0 0 1-.631-.631c0-.34.291-.632.631-.632h2.428c.34 0 .631.292.631.632s-.291.631-.631.631Zm18.207 0h-2.428a.642.642 0 0 1-.631-.631c0-.34.291-.632.631-.632h2.428c.34 0 .631.292.631.632s-.291.631-.631.631Zm-4.467-5.634c-.146 0-.34-.048-.437-.194a.675.675 0 0 1 0-.923l1.699-1.7a.677.677 0 0 1 .923 0 .675.675 0 0 1 0 .923l-1.699 1.7c-.146.097-.34.194-.486.194Zm1.699 13.016c-.145 0-.339-.048-.437-.194l-1.699-1.7a.675.675 0 0 1 0-.923c.243-.243.631-.243.923 0l1.699 1.7a.675.675 0 0 1 0 .923c-.146.097-.34.194-.486.194ZM11.652 9.81c-.145 0-.339-.048-.437-.194l-1.699-1.7a.674.674 0 0 1 0-.922c.243-.243.631-.243.923 0l1.699 1.699a.675.675 0 0 1 0 .923.695.695 0 0 1-.486.194Z" style="fill: rgb(244, 167, 29);" class="fills" data-testid="svg-path"/><path d="M16.216 28.266h-9.71a3.254 3.254 0 0 1-3.253-3.254c0-1.36.825-2.574 2.088-3.06a3.006 3.006 0 0 1 3.01-2.914c.34 0 .68.049.971.194a4.231 4.231 0 0 1 3.399-1.748 4.228 4.228 0 0 1 4.224 4.225c0 .194 0 .34-.049.534a3.082 3.082 0 0 1 2.428 3.012 3.111 3.111 0 0 1-3.108 3.011Zm-7.914-7.917a1.72 1.72 0 0 0-1.699 1.7c0 .097 0 .194.049.292l.097.631-.631.146c-.923.194-1.603 1.02-1.603 1.942a2 2 0 0 0 1.991 1.992h9.71c.971 0 1.748-.778 1.748-1.749a1.74 1.74 0 0 0-1.748-1.748h-.097l-.971.048.291-.922a2.922 2.922 0 0 0-2.767-3.837c-1.068 0-2.088.583-2.573 1.554l-.34.631-.583-.34c-.242-.242-.582-.34-.874-.34Z" class="fills" data-testid="svg-path"/><path d="M23.062 14.716c0-3.206-2.622-5.828-5.826-5.828-3.205 0-5.826 2.622-5.826 5.828 0 .34.048.68.097.971 0 .389.34.68.68.631.194 0 .485-.145.534-.34.097-.242.048-.485 0-.728-.049-.194-.049-.389-.049-.534a4.56 4.56 0 0 1 4.564-4.566c2.525 0 4.515 2.04 4.515 4.566 0 .194-.048.388-.048.582-.049.195-.049.389-.097.583-.098.34-.243.729-.389 1.02a6.13 6.13 0 0 1-.631.923 2.698 2.698 0 0 1-.825.68c-.34.194-.68.34-1.02.486-.146.048-.291.048-.437.145-.146.049-.243.194-.291.34-.049.097-.049.146-.049.243 0 .34.291.631.68.68 2.476-.534 4.418-2.963 4.418-5.682Z" style="fill: rgb(244, 167, 29);" class="fills" data-testid="svg-path"/></g></svg>