<svg width="31.073" xmlns="http://www.w3.org/2000/svg" height="31.083" fill="none"><g data-testid="night-change-rain" style="fill: rgb(0, 0, 0);"><path d="M24.713 11.705c.048-.389.097-.778.097-1.166a6.507 6.507 0 0 0-6.506-6.508c-2.185 0-4.224 1.117-5.438 2.914-.582-.243-1.165-.389-1.796-.389a4.509 4.509 0 0 0-4.516 4.517v.146c-1.99.68-3.398 2.525-3.398 4.711 0 2.72 2.233 4.954 4.952 4.954h2.428c.777 0 .728-1.312 0-1.312H8.108a3.637 3.637 0 0 1-3.641-3.642 3.641 3.641 0 0 1 2.961-3.594l.632-.146-.097-.631c-.049-.194-.049-.34-.049-.534 0-1.749 1.457-3.206 3.204-3.206.583 0 1.166.146 1.7.486l.582.34.34-.632c.923-1.699 2.671-2.768 4.613-2.768a5.202 5.202 0 0 1 5.195 5.197c0 .534-.097 1.068-.243 1.602l-.291.923 1.019-.048h.146a3.304 3.304 0 0 1 3.301 3.302 3.305 3.305 0 0 1-3.301 3.303h-2.768c-.825 0-.971 1.311 0 1.311h2.768c2.525 0 4.612-2.088 4.612-4.614-.048-2.282-1.845-4.225-4.078-4.516Z" class="fills" data-testid="svg-path"/><path d="M12.089 22.583c-.145 0-.242-.048-.388-.097-.291-.194-.34-.631-.146-.874l1.166-1.7c.194-.291.582-.34.874-.145.291.194.339.582.145.874l-1.165 1.7a.598.598 0 0 1-.486.242Zm2.816 0c-.145 0-.242-.048-.388-.097-.291-.194-.34-.631-.146-.874l1.166-1.7c.194-.291.631-.34.874-.145.291.194.339.582.145.874l-1.165 1.7a.598.598 0 0 1-.486.242Zm2.816 0c-.145 0-.242-.048-.388-.097-.291-.194-.34-.631-.146-.874l1.166-1.7c.194-.291.631-.34.874-.145.291.194.339.582.145.874l-1.165 1.7c-.049.145-.243.242-.486.242Zm-8.69 4.614c-.146 0-.243-.048-.389-.097-.291-.194-.34-.583-.145-.874l1.165-1.7c.194-.291.631-.34.922-.146.292.195.34.583.146.875l-1.165 1.699a.78.78 0 0 1-.534.243Zm2.864 0c-.145 0-.243-.048-.388-.097-.292-.194-.34-.583-.146-.874l1.165-1.7c.195-.291.583-.34.874-.146.292.195.34.583.146.875l-1.165 1.699a.598.598 0 0 1-.486.243Zm2.816 0c-.145 0-.243-.048-.388-.097-.292-.194-.34-.583-.146-.874l1.165-1.7c.195-.291.583-.34.874-.146.292.195.34.583.146.875l-1.165 1.699a.598.598 0 0 1-.486.243Z" style="fill: rgb(40, 133, 199);" class="fills" data-testid="svg-path"/></g></svg>