<svg width="31.073" xmlns="http://www.w3.org/2000/svg" height="31.083" fill="none"><g data-testid="change-snow" style="fill: rgb(0, 0, 0);"><path d="M24.713 11.947c.048-.388.097-.777.097-1.165a6.507 6.507 0 0 0-6.506-6.508c-2.185 0-4.224 1.117-5.438 2.914-.582-.243-1.165-.389-1.796-.389-2.476 0-4.516 2.04-4.516 4.517v.146c-1.99.631-3.398 2.525-3.398 4.711 0 2.719 2.233 4.953 4.952 4.953h2.428c.777 0 .728-1.262 0-1.262H8.108a3.637 3.637 0 0 1-3.641-3.643 3.642 3.642 0 0 1 2.961-3.594l.632-.145-.097-.632c-.049-.194-.049-.34-.049-.534 0-1.748 1.457-3.205 3.204-3.205.583 0 1.166.145 1.7.485l.582.34.34-.583c.923-1.699 2.671-2.768 4.613-2.768a5.202 5.202 0 0 1 5.195 5.197c0 .534-.097 1.068-.243 1.602l-.291.923 1.019-.048h.146a3.304 3.304 0 0 1 3.301 3.302 3.305 3.305 0 0 1-3.301 3.303h-2.768c-.825 0-.971 1.262 0 1.262h2.768c2.525 0 4.612-2.088 4.612-4.613-.048-2.332-1.845-4.274-4.078-4.566Z" class="fills" data-testid="svg-path"/><path d="M20.489 22.535h-2.476a3.008 3.008 0 0 0-.243-.583l1.117-1.117a.528.528 0 0 0 0-.728.527.527 0 0 0-.729 0l-1.116 1.117a2.913 2.913 0 0 0-.583-.243v-2.477a.538.538 0 0 0-.534-.534.538.538 0 0 0-.534.534v2.477a2.913 2.913 0 0 0-.583.243l-1.068-1.069a.528.528 0 0 0-.728 0 .53.53 0 0 0 0 .729l1.068 1.068a3.008 3.008 0 0 0-.243.583h-2.476a.54.54 0 0 0-.534.534.54.54 0 0 0 .534.534h2.476c.049.195.146.389.243.583l-1.117 1.117a.53.53 0 0 0 0 .729.552.552 0 0 0 .389.145c.145 0 .243-.048.388-.145l1.117-1.117c.194.097.388.194.582.242v2.477a.54.54 0 0 0 .535.535.54.54 0 0 0 .534-.535v-2.477c.194-.048.388-.145.582-.242l1.068 1.068a.553.553 0 0 0 .389.146.552.552 0 0 0 .388-.146.528.528 0 0 0 0-.728l-1.068-1.069c.097-.194.194-.388.243-.583h2.476a.54.54 0 0 0 .534-.534c-.097-.291-.34-.534-.631-.534Zm-4.515 1.36a.852.852 0 0 1-.826-.826c0-.437.389-.826.826-.826.437 0 .825.389.825.826a.818.818 0 0 1-.825.826Z" style="fill: rgb(114, 184, 212);" class="fills" data-testid="svg-path"/></g></svg>