<svg width="31.073" xmlns="http://www.w3.org/2000/svg" height="31.083" fill="none"><g data-testid="night-thunder-storms" style="fill: rgb(0, 0, 0);"><path d="M9.565 25.74c-.097 0-.194 0-.292-.048-.339-.146-.437-.535-.291-.875l1.36-2.816c.145-.34.534-.437.873-.292.34.146.437.534.292.874l-1.36 2.817c-.145.195-.34.34-.582.34Zm-3.205 0c-.097 0-.194 0-.291-.048-.34-.146-.437-.535-.291-.875l1.359-2.816c.146-.34.534-.437.874-.292.34.146.437.534.291.874L6.943 25.4c-.097.195-.34.34-.583.34Zm16.362 0c-.097 0-.194 0-.291-.048-.34-.146-.437-.535-.291-.875l1.359-2.816c.146-.34.534-.437.874-.292.34.146.437.534.291.874L23.305 25.4c-.097.195-.34.34-.583.34Zm-3.204 0c-.097 0-.194 0-.291-.048-.34-.146-.437-.535-.292-.875l1.36-2.816c.145-.34.534-.437.874-.292.339.146.437.534.291.874L20.1 25.4c-.097.195-.339.34-.582.34Z" style="fill: rgb(40, 133, 199);" class="fills" data-testid="svg-path"/><path d="M13.449 28.8a.91.91 0 0 1-.34-.097c-.291-.194-.388-.583-.194-.874l3.835-6.363h-4.029l4.515-6.41c.194-.292.583-.34.874-.146.291.194.34.631.145.923l-3.107 4.419h3.836l-5.001 8.208a.66.66 0 0 1-.534.34Z" style="fill: rgb(244, 167, 29);" class="fills" data-testid="svg-path"/><path d="M24.713 10.83c.048-.388.097-.777.097-1.165a6.507 6.507 0 0 0-6.506-6.508c-2.185 0-4.224 1.117-5.438 2.914a4.36 4.36 0 0 0-1.748-.389c-2.476 0-4.515 2.04-4.515 4.517v.146c-1.991.68-3.399 2.525-3.399 4.711 0 2.719 2.234 4.953 4.953 4.953h2.427c.777 0 .729-1.262 0-1.262H8.157a3.638 3.638 0 0 1-3.642-3.643 3.642 3.642 0 0 1 2.962-3.594l.631-.097-.097-.631c-.048-.194-.048-.389-.048-.534 0-1.749 1.456-3.206 3.204-3.206.583 0 1.165.146 1.699.486l.583.34.34-.632c.922-1.699 2.67-2.768 4.612-2.768a5.201 5.201 0 0 1 5.195 5.197c0 .534-.097 1.068-.243 1.602l-.388.875 1.02-.049h.145a3.306 3.306 0 0 1 3.302 3.303 3.305 3.305 0 0 1-3.302 3.302h-2.767c-.826 0-.971 1.263 0 1.263h2.767c2.525 0 4.613-2.089 4.613-4.614 0-2.283-1.797-4.225-4.03-4.517Z" class="fills" data-testid="svg-path"/></g></svg>