<svg width="31.073" xmlns="http://www.w3.org/2000/svg" height="31.083" fill="none"><g data-testid="clear" style="fill: rgb(0, 0, 0);"><path d="M15.974 9.325a.644.644 0 0 1-.632-.632V6.459c0-.34.292-.631.632-.631.339 0 .631.291.631.631v2.234c0 .34-.292.632-.631.632Zm0 16.804a.644.644 0 0 1-.632-.632v-2.234c0-.34.292-.631.632-.631.339 0 .631.291.631.631v2.234c0 .34-.292.632-.631.632ZM8.691 16.61H6.457a.644.644 0 0 1-.631-.632c0-.34.292-.631.631-.631h2.234c.34 0 .631.291.631.631s-.291.632-.631.632Zm16.799 0h-2.234a.643.643 0 0 1-.631-.632c0-.34.291-.631.631-.631h2.234c.34 0 .631.291.631.631s-.291.632-.631.632Zm-4.127-5.197c-.146 0-.34-.048-.437-.194a.675.675 0 0 1 0-.923l1.553-1.554a.675.675 0 0 1 .923 0 .675.675 0 0 1 0 .923l-1.554 1.554a.693.693 0 0 1-.485.194ZM9.273 23.506c-.145 0-.339-.048-.437-.194a.677.677 0 0 1 0-.923l1.554-1.554a.675.675 0 0 1 .923 0 .677.677 0 0 1 0 .923L9.71 23.312c-.097.146-.291.194-.437.194Zm13.643-.097c-.145 0-.339-.049-.437-.194l-1.553-1.554a.675.675 0 0 1 0-.923.674.674 0 0 1 .922 0l1.554 1.554a.675.675 0 0 1 0 .923.626.626 0 0 1-.486.194ZM10.827 11.51c-.146 0-.34-.048-.437-.194L8.836 9.762a.677.677 0 0 1 0-.923.675.675 0 0 1 .923 0l1.554 1.554a.677.677 0 0 1 0 .923.624.624 0 0 1-.486.194Zm5.147.389c2.233 0 4.078 1.845 4.078 4.079s-1.845 4.08-4.078 4.08c-2.234 0-4.079-1.846-4.079-4.08s1.845-4.079 4.079-4.079Zm0-1.311c-2.962 0-5.39 2.428-5.39 5.39 0 2.963 2.428 5.391 5.39 5.391 2.961 0 5.389-2.428 5.389-5.391 0-2.962-2.428-5.39-5.389-5.39Z" style="fill: rgb(244, 167, 29);" class="fills" data-testid="svg-path"/></g></svg>