<svg width="31.073" xmlns="http://www.w3.org/2000/svg" height="31.083" fill="none"><g data-testid="mostly-cloudy" style="fill: rgb(0, 0, 0);"><path d="M20.926 6.751a.591.591 0 0 1-.583-.583v-1.7c0-.34.292-.583.583-.583a.59.59 0 0 1 .582.583v1.651c0 .34-.242.632-.582.632Zm7.04 5.391h-1.651a.561.561 0 0 1-.583-.583c0-.34.243-.583.583-.583h1.651a.56.56 0 0 1 .582.583c.049.34-.242.583-.582.583Zm-3.059-3.837a.595.595 0 0 1-.437-.194c-.243-.243-.243-.632 0-.826l1.165-1.166c.243-.242.632-.242.826 0 .243.243.243.632 0 .826l-1.165 1.166c-.049.145-.243.194-.389.194Zm1.165 8.888a.594.594 0 0 1-.437-.195l-1.165-1.165c-.243-.243-.243-.632 0-.826.243-.243.631-.243.826 0l1.165 1.166c.243.242.243.631 0 .825-.049.146-.243.195-.389.195Zm-8.933-8.84a.59.59 0 0 1-.437-.194l-1.165-1.117c-.243-.243-.243-.631 0-.825.242-.243.631-.243.825 0l1.165 1.165c.243.243.243.631 0 .826a.551.551 0 0 1-.388.145Z" style="fill: rgb(244, 167, 29);" class="fills" data-testid="svg-path"/><path d="M22.14 28.071H7.768c-2.476 0-4.515-2.039-4.515-4.516 0-1.943 1.262-3.691 3.059-4.274v-.097a4.124 4.124 0 0 1 4.127-4.128c.534 0 1.068.097 1.553.34 1.068-1.652 2.913-2.623 4.904-2.623 3.253 0 5.923 2.671 5.923 5.925 0 .34-.048.68-.097 1.02 2.039.291 3.642 2.04 3.642 4.177-.049 2.282-1.894 4.176-4.224 4.176ZM10.39 16.367a2.818 2.818 0 0 0-2.816 2.817c0 .145 0 .291.049.485l.097.632-.631.097c-1.506.291-2.574 1.651-2.574 3.157a3.254 3.254 0 0 0 3.253 3.254H22.14a2.923 2.923 0 0 0 2.913-2.914 2.922 2.922 0 0 0-2.913-2.914h-.146l-.971.048.291-.922a4.51 4.51 0 0 0 .243-1.409 4.611 4.611 0 0 0-4.612-4.614 4.63 4.63 0 0 0-4.079 2.477l-.34.632-.582-.34c-.486-.389-1.02-.486-1.554-.486Z" class="fills" data-testid="svg-path"/><path d="M21.654 7.771a3.675 3.675 0 0 0-4.321 3.011c-.049.194-.049.34-.049.534-.048.243.146.486.437.534.534.049.486-.485.583-.825a2.788 2.788 0 0 1 3.204-2.234 2.788 2.788 0 0 1 2.234 3.205c-.049.34-.146.68-.34.971-.243.34-.631.632-.971.874-.291.195-.146.632.194.68.389.098.728-.194 1.02-.485.34-.292.631-.729.825-1.166a4.35 4.35 0 0 0 .243-.728c.34-2.089-1.02-4.031-3.059-4.371Z" style="fill: rgb(244, 167, 29);" class="fills" data-testid="svg-path"/></g></svg>