<svg width="31.073" xmlns="http://www.w3.org/2000/svg" height="31.083" fill="none"><g data-testid="cloudy" style="fill: rgb(0, 0, 0);"><path d="M24.13 24.38H8.157c-2.719 0-4.953-2.234-4.953-4.953 0-2.137 1.408-4.031 3.399-4.711v-.146c0-2.477 2.039-4.517 4.515-4.517.632 0 1.214.146 1.797.389 1.214-1.797 3.204-2.914 5.438-2.914a6.508 6.508 0 0 1 6.506 6.508c0 .388-.049.777-.098 1.165a4.613 4.613 0 0 1 4.03 4.566c-.048 2.525-2.136 4.613-4.661 4.613ZM11.118 11.365c-1.747 0-3.204 1.457-3.204 3.205 0 .146 0 .34.049.534l.097.632-.632.097c-1.699.34-2.961 1.845-2.961 3.594a3.637 3.637 0 0 0 3.641 3.642h15.974a3.304 3.304 0 0 0 3.301-3.302 3.305 3.305 0 0 0-3.301-3.303h-.146l-.971.049.291-.923c.146-.534.243-1.069.243-1.603a5.201 5.201 0 0 0-5.195-5.196c-1.942 0-3.69 1.068-4.612 2.768l-.34.631-.583-.34c-.485-.34-1.068-.485-1.651-.485Z" class="fills" data-testid="svg-path"/></g></svg>